<svg width="148" height="36" viewBox="0 0 148 36" fill="none" xmlns="http://www.w3.org/2000/svg">
<path d="M22.6222 10.3324H18.6335C18.4801 9.48011 18.1946 8.73011 17.777 8.08239C17.3594 7.43466 16.848 6.88494 16.2429 6.43324C15.6378 5.98153 14.9602 5.64062 14.2102 5.41051C13.4688 5.1804 12.6804 5.06534 11.8452 5.06534C10.3366 5.06534 8.9858 5.4446 7.79261 6.20312C6.60795 6.96165 5.67045 8.07386 4.98011 9.53977C4.2983 11.0057 3.95739 12.7955 3.95739 14.9091C3.95739 17.0398 4.2983 18.8381 4.98011 20.304C5.67045 21.7699 6.61222 22.8778 7.8054 23.6278C8.99858 24.3778 10.3409 24.7528 11.8324 24.7528C12.6591 24.7528 13.4432 24.642 14.1847 24.4205C14.9347 24.1903 15.6122 23.8537 16.2173 23.4105C16.8224 22.9673 17.3338 22.4261 17.7514 21.7869C18.1776 21.1392 18.4716 20.3977 18.6335 19.5625L22.6222 19.5753C22.4091 20.8622 21.9957 22.0469 21.3821 23.1293C20.777 24.2031 19.9972 25.1321 19.0426 25.9162C18.0966 26.6918 17.0142 27.2926 15.7955 27.7188C14.5767 28.1449 13.2472 28.358 11.8068 28.358C9.53977 28.358 7.51989 27.821 5.74716 26.7472C3.97443 25.6648 2.5767 24.1179 1.55398 22.1065C0.539773 20.0952 0.0326705 17.696 0.0326705 14.9091C0.0326705 12.1136 0.544034 9.71449 1.56676 7.71165C2.58949 5.70028 3.98722 4.15767 5.75994 3.08381C7.53267 2.00142 9.5483 1.46023 11.8068 1.46023C13.196 1.46023 14.4915 1.66051 15.6932 2.06108C16.9034 2.45312 17.9901 3.03267 18.9531 3.79972C19.9162 4.55824 20.7131 5.48722 21.3438 6.58665C21.9744 7.67756 22.4006 8.92614 22.6222 10.3324ZM35.5053 28.3963C33.5707 28.3963 31.9045 27.983 30.5067 27.1562C29.1175 26.321 28.0437 25.1491 27.2852 23.6406C26.5352 22.1236 26.1602 20.3466 26.1602 18.3097C26.1602 16.2983 26.5352 14.5256 27.2852 12.9915C28.0437 11.4574 29.1005 10.2599 30.4556 9.39915C31.8192 8.53835 33.413 8.10795 35.2369 8.10795C36.3448 8.10795 37.4187 8.29119 38.4585 8.65767C39.4982 9.02415 40.4315 9.59943 41.2582 10.3835C42.0849 11.1676 42.7369 12.1861 43.2141 13.4389C43.6914 14.6832 43.93 16.196 43.93 17.9773V19.3324H28.3207V16.4688H40.1843C40.1843 15.4631 39.9798 14.5724 39.5707 13.7969C39.1616 13.0128 38.5863 12.3949 37.8448 11.9432C37.1119 11.4915 36.2511 11.2656 35.2624 11.2656C34.1886 11.2656 33.2511 11.5298 32.4499 12.0582C31.6573 12.5781 31.0437 13.2599 30.609 14.1037C30.1829 14.9389 29.9698 15.8466 29.9698 16.8267V19.0639C29.9698 20.3764 30.1999 21.4929 30.6602 22.4134C31.1289 23.3338 31.7809 24.0369 32.6161 24.5227C33.4513 25 34.4272 25.2386 35.5437 25.2386C36.2681 25.2386 36.9286 25.1364 37.5252 24.9318C38.1218 24.7187 38.6374 24.4034 39.0721 23.9858C39.5067 23.5682 39.8391 23.0526 40.0692 22.4389L43.6871 23.0909C43.3974 24.1562 42.8775 25.0895 42.1275 25.8906C41.386 26.6832 40.4528 27.3011 39.3278 27.7443C38.2113 28.179 36.9371 28.3963 35.5053 28.3963ZM50.0249 35.3636C49.4538 35.3636 48.9339 35.3168 48.4652 35.223C47.9964 35.1378 47.647 35.044 47.4169 34.9418L48.3374 31.8097C49.0362 31.9972 49.6584 32.0781 50.2038 32.0526C50.7493 32.027 51.2308 31.8224 51.6484 31.4389C52.0746 31.0554 52.4496 30.429 52.7734 29.5597L53.2464 28.2557L46.0618 8.36364H50.1527L55.1257 23.6023H55.3303L60.3033 8.36364H64.407L56.3146 30.6207C55.9396 31.6435 55.4624 32.5085 54.8828 33.2159C54.3033 33.9318 53.6129 34.4688 52.8118 34.8267C52.0107 35.1847 51.0817 35.3636 50.0249 35.3636ZM68.3061 1.81818H73.1001L81.4354 22.1705H81.7422L90.0774 1.81818H94.8715V28H91.1129V9.05398H90.87L83.1484 27.9616H80.0291L72.3075 9.04119H72.0646V28H68.3061V1.81818ZM100.308 28V8.36364H104.13V28H100.308ZM102.238 5.33381C101.574 5.33381 101.002 5.11221 100.525 4.66903C100.056 4.21733 99.8221 3.6804 99.8221 3.05824C99.8221 2.42756 100.056 1.89062 100.525 1.44744C101.002 0.995738 101.574 0.769886 102.238 0.769886C102.903 0.769886 103.47 0.995738 103.939 1.44744C104.416 1.89062 104.654 2.42756 104.654 3.05824C104.654 3.6804 104.416 4.21733 103.939 4.66903C103.47 5.11221 102.903 5.33381 102.238 5.33381ZM113.095 16.3409V28H109.273V8.36364H112.942V11.5597H113.185C113.636 10.5199 114.344 9.68466 115.307 9.05398C116.278 8.4233 117.501 8.10795 118.976 8.10795C120.314 8.10795 121.486 8.3892 122.491 8.9517C123.497 9.50568 124.277 10.3324 124.831 11.4318C125.385 12.5312 125.662 13.8906 125.662 15.5099V28H121.839V15.9702C121.839 14.5469 121.469 13.4347 120.727 12.6335C119.986 11.8239 118.967 11.419 117.672 11.419C116.786 11.419 115.997 11.6108 115.307 11.9943C114.625 12.3778 114.084 12.9403 113.683 13.6818C113.291 14.4148 113.095 15.3011 113.095 16.3409ZM139.251 28.3963C137.317 28.3963 135.651 27.983 134.253 27.1562C132.864 26.321 131.79 25.1491 131.031 23.6406C130.281 22.1236 129.906 20.3466 129.906 18.3097C129.906 16.2983 130.281 14.5256 131.031 12.9915C131.79 11.4574 132.847 10.2599 134.202 9.39915C135.565 8.53835 137.159 8.10795 138.983 8.10795C140.091 8.10795 141.165 8.29119 142.205 8.65767C143.244 9.02415 144.178 9.59943 145.004 10.3835C145.831 11.1676 146.483 12.1861 146.96 13.4389C147.438 14.6832 147.676 16.196 147.676 17.9773V19.3324H132.067V16.4688H143.93C143.93 15.4631 143.726 14.5724 143.317 13.7969C142.908 13.0128 142.332 12.3949 141.591 11.9432C140.858 11.4915 139.997 11.2656 139.009 11.2656C137.935 11.2656 136.997 11.5298 136.196 12.0582C135.403 12.5781 134.79 13.2599 134.355 14.1037C133.929 14.9389 133.716 15.8466 133.716 16.8267V19.0639C133.716 20.3764 133.946 21.4929 134.406 22.4134C134.875 23.3338 135.527 24.0369 136.362 24.5227C137.197 25 138.173 25.2386 139.29 25.2386C140.014 25.2386 140.675 25.1364 141.271 24.9318C141.868 24.7187 142.384 24.4034 142.818 23.9858C143.253 23.5682 143.585 23.0526 143.815 22.4389L147.433 23.0909C147.143 24.1562 146.624 25.0895 145.874 25.8906C145.132 26.6832 144.199 27.3011 143.074 27.7443C141.957 28.179 140.683 28.3963 139.251 28.3963Z" fill="white"/>
</svg>
